HIERARCHY
ROOT root
{
	OFFSET 0.000000 0.000000 0.000000
	CHANNELS 6 Xposition Yposition Zposition Zrotation Yrotation Xrotation
	JOINT lhip
	{
		OFFSET 0.058581 -0.082280 -0.017664
		CHANNELS 3 Zrotation Yrotation Xrotation
		JOINT lknee
		{
			OFFSET 0.043451 -0.386469 0.008037
			CHANNELS 3 Zrotation Yrotation Xrotation
			JOINT lankle
			{
				OFFSET -0.014790 -0.426874 -0.037428
				CHANNELS 3 Zrotation Yrotation Xrotation
				JOINT ltoe
				{
					OFFSET 0.041054 -0.060286 0.122042
					CHANNELS 3 Zrotation Yrotation Xrotation
					End Site
					{
						OFFSET 0.000000 0.000000 0.000000
					}
				}
			}
		}
	}
	JOINT rhip
	{
		OFFSET -0.060310 -0.090513 -0.013543
		CHANNELS 3 Zrotation Yrotation Xrotation
		JOINT rknee
		{
			OFFSET -0.043257 -0.383688 -0.004843
			CHANNELS 3 Zrotation Yrotation Xrotation
			JOINT rankle
			{
				OFFSET 0.019056 -0.420046 -0.034562
				CHANNELS 3 Zrotation Yrotation Xrotation
				JOINT rtoe
				{
					OFFSET -0.034840 -0.062106 0.130323
					CHANNELS 3 Zrotation Yrotation Xrotation
					End Site
					{
						OFFSET 0.000000 0.000000 0.000000
					}
				}
			}
		}
	}
	JOINT lowerback
	{
		OFFSET 0.004439 0.124404 -0.038385
		CHANNELS 3 Zrotation Yrotation Xrotation
		JOINT upperback
		{
			OFFSET 0.004488 0.137956 0.026820
			CHANNELS 3 Zrotation Yrotation Xrotation
			JOINT chest
			{
				OFFSET -0.002265 0.056032 0.002855
				CHANNELS 3 Zrotation Yrotation Xrotation
				JOINT lowerneck
				{
					OFFSET -0.013390 0.211636 -0.033468
					CHANNELS 3 Zrotation Yrotation Xrotation
					JOINT upperneck
					{
						OFFSET 0.010113 0.088937 0.050410
						CHANNELS 3 Zrotation Yrotation Xrotation
						End Site
						{
							OFFSET 0.000000 0.000000 0.000000
						}
					}
				}
				JOINT lclavicle
				{
					OFFSET 0.071702 0.114000 -0.018898
					CHANNELS 3 Zrotation Yrotation Xrotation
					JOINT lshoulder
					{
						OFFSET 0.122921 0.045205 -0.019046
						CHANNELS 3 Zrotation Yrotation Xrotation
						JOINT lelbow
						{
							OFFSET 0.255332 -0.015649 -0.022946
							CHANNELS 3 Zrotation Yrotation Xrotation
							JOINT lwrist
							{
								OFFSET 0.265709 0.012698 -0.007375
								CHANNELS 3 Zrotation Yrotation Xrotation
								End Site
								{
									OFFSET 0.000000 0.000000 0.000000
								}
							}
						}
					}
				}
				JOINT rclavicle
				{
					OFFSET -0.082954 0.112472 -0.023707
					CHANNELS 3 Zrotation Yrotation Xrotation
					JOINT rshoulder
					{
						OFFSET -0.113228 0.046853 -0.008472
						CHANNELS 3 Zrotation Yrotation Xrotation
						JOINT relbow
						{
							OFFSET -0.260127 -0.014369 -0.031269
							CHANNELS 3 Zrotation Yrotation Xrotation
							JOINT rwrist
							{
								OFFSET -0.269108 0.006794 -0.006027
								CHANNELS 3 Zrotation Yrotation Xrotation
								End Site
								{
									OFFSET 0.000000 0.000000 0.000000
								}
							}
						}
					}
				}
			}
		}
	}
}
MOTION
Frames: 13
Frame Time: 0.033333
-0.049666 -1.104954 0.935839 -158.310809 0.465457 101.067992 7.684434 7.606293 -40.116201 -8.327125 12.071617 45.879225 0.820073 9.026487 -15.435222 0.000000 -0.000000 0.000000 -6.500754 -10.736457 14.574203 3.188147 -6.257322 3.408094 5.665805 -8.593449 -12.936546 0.000000 -0.000000 0.000000 -3.013862 14.123416 12.831828 -1.087222 -0.520572 9.909659 0.001254 1.679326 -6.285477 -4.904850 -3.039237 1.103260 -2.636821 -0.883135 -3.175097 -26.984342 5.114463 5.116659 -47.002907 14.478785 8.694389 11.819287 -23.992557 -13.851770 8.859424 -12.539861 -13.814432 23.551743 10.301261 3.903984 39.285483 5.398304 8.097344 -5.439334 59.978156 -10.433895 -17.249507 22.086412 -28.869449 
-0.068600 -1.080374 0.921086 -156.767461 0.539495 102.074990 7.440641 8.113118 -41.278970 -9.461004 13.105396 49.256263 1.836887 10.375443 -16.787777 0.000000 -0.000000 0.000000 -7.107852 -11.003134 16.266395 3.395660 -6.228817 3.321332 6.224523 -8.161587 -12.300515 0.000000 -0.000000 0.000000 -3.594291 14.819972 11.499696 -0.858125 -0.422876 11.047418 -0.008488 1.942009 -6.787905 -3.219088 -4.094950 1.580117 -1.847696 -2.617089 -3.216397 -27.179350 5.499665 5.795794 -45.146018 12.017123 7.119211 11.818455 -28.202651 -17.196953 5.598502 -12.637217 -11.398267 23.341988 10.033134 4.504849 38.258325 4.335148 6.266060 -3.979144 58.693541 -9.737169 -9.671557 22.066932 -25.519579 
-0.092773 -1.054221 0.911309 -155.144596 0.373639 103.799198 6.564262 7.859800 -41.562618 -9.680602 14.299648 51.009162 2.418576 10.500936 -20.731967 0.000000 -0.000000 0.000000 -7.609662 -10.776403 15.181322 2.830288 -6.218327 6.812550 7.538186 -8.075901 -10.640353 0.000000 -0.000000 0.000000 -4.170487 14.920210 9.871428 -0.638424 -0.290843 11.676655 -0.322530 2.050514 -6.793516 -2.081579 -5.283228 1.653106 -0.279918 -4.136959 -4.297589 -27.845922 5.895993 4.823544 -42.564543 10.187496 7.261760 11.109834 -34.349583 -18.160367 3.838713 -13.405208 -11.251361 23.759681 9.402932 4.364759 37.709909 2.778947 5.721179 -2.167460 55.462097 -8.786591 -6.807281 21.505994 -24.465783 
-0.120219 -1.026684 0.905871 -152.850422 0.490631 104.879975 5.683342 6.910193 -40.476141 -9.689908 14.145676 51.727468 3.835206 11.577912 -22.901128 0.000000 -0.000000 0.000000 -7.120678 -10.106561 11.998866 1.258046 -7.261549 15.202163 6.768314 -8.659828 -7.286685 0.000000 -0.000000 0.000000 -4.049421 14.139503 9.416956 -0.142926 -0.045132 11.957840 -0.540121 1.940462 -6.921998 -0.397067 -6.215628 1.768975 0.968565 -5.779098 -5.096015 -27.339571 5.189731 4.597089 -42.290796 8.234910 7.982389 11.101587 -41.141693 -17.738214 3.333555 -14.612383 -11.185412 23.513636 9.044342 4.344726 38.612621 0.749650 6.048098 -1.285067 49.964425 -8.103130 -6.714792 21.691634 -24.635112 
-0.149040 -0.999486 0.903373 -149.432246 0.418075 105.078241 4.656542 5.539389 -38.375909 -10.998266 12.250916 51.598970 4.045063 12.271268 -24.701387 0.000000 -0.000000 0.000000 -5.610810 -8.946557 5.378950 -1.482403 -7.704469 30.532679 4.732400 -11.727585 -4.668266 0.000000 -0.000000 0.000000 -3.251486 12.069255 11.023186 0.605530 -0.210425 10.677484 -0.567871 1.404070 -6.046638 1.075572 -6.786912 1.032865 2.306096 -6.849125 -5.648792 -26.231208 4.090340 4.181824 -42.620577 6.175892 8.928274 9.568770 -49.187601 -13.527758 6.569257 -15.700471 -13.165958 23.116980 8.707546 4.259881 39.967951 -0.747429 6.547451 -0.755803 43.522547 -6.222595 -14.079659 21.209976 -26.886180 
-0.178255 -0.970410 0.901423 -145.187275 -0.082515 104.373937 3.526608 3.855767 -34.314617 -12.642764 9.535675 50.153495 5.452846 13.683007 -26.945590 0.000000 -0.000000 0.000000 -4.842059 -8.099878 -2.706493 -2.642614 -8.092752 49.121271 2.239789 -14.508353 -4.176588 0.000000 -0.000000 0.000000 -2.881414 9.126817 13.368950 1.844929 -1.106795 8.866112 0.035559 0.478064 -4.880855 2.568254 -7.175466 0.259437 2.670398 -7.255243 -5.487620 -24.373908 3.099897 3.960530 -43.075783 4.152199 9.257976 7.497291 -58.383861 -9.004385 6.755658 -16.718460 -13.657981 22.423636 8.248813 3.588457 41.019632 -1.839805 6.644311 -0.256815 36.676003 -4.856926 -11.695751 19.305354 -25.714633 
-0.206399 -0.934933 0.903465 -142.416963 -0.472687 102.672043 2.864574 4.143195 -27.209633 -14.568968 5.796793 46.327867 6.324723 14.564259 -28.654275 0.000000 -0.000000 0.000000 -4.732959 -6.917417 -10.624750 -1.685784 -8.973612 64.584238 1.021407 -14.272519 -6.044902 0.000000 -0.000000 0.000000 -3.666339 5.305162 15.739869 3.099736 -0.745541 7.874694 1.044425 0.343505 -4.033904 4.245317 -6.394839 -0.771774 2.508791 -8.372948 -5.164530 -21.859531 1.207949 4.122118 -42.977077 2.705443 9.397783 6.164894 -67.966833 -4.573838 8.012121 -18.569091 -15.110219 22.887456 8.322290 3.088276 41.540680 -4.275892 6.187977 -0.990845 31.594522 -3.184610 -9.949621 18.225971 -25.268792 
-0.236364 -0.904079 0.914099 -138.774428 -0.971991 102.689543 1.626036 3.156915 -21.696324 -14.798276 1.001638 41.244584 6.089457 15.230205 -28.569254 0.000000 -0.000000 0.000000 -5.102263 -7.282467 -21.515449 0.042418 -11.306743 74.696070 1.050000 -12.880030 -7.732196 0.000000 -0.000000 0.000000 -1.952819 1.211240 17.514723 4.297907 -1.636385 6.115882 1.179134 -0.351511 -3.594174 3.445132 -6.714471 -3.111836 2.575224 -8.150860 -4.064986 -20.601696 1.300073 4.170484 -41.971609 -0.400503 9.296898 4.633218 -75.765851 -1.428570 8.629611 -20.013570 -15.594922 22.372780 6.989537 2.903122 41.901753 -5.848124 5.590200 -1.889951 28.043872 -3.069885 -7.720937 18.128150 -22.752301 
-0.270153 -0.869304 0.935404 -135.977851 -2.432752 102.369171 -0.673296 2.238738 -14.298518 -13.072120 -3.528972 33.603795 4.934400 14.754978 -25.863730 0.000000 -0.000000 0.000000 -6.510600 -8.919704 -30.981830 1.261023 -13.261667 77.172800 0.941301 -10.794557 -9.300399 0.000000 -0.000000 0.000000 -0.910398 -1.060413 17.830441 6.182201 -3.232566 7.265626 1.780369 -1.389337 -6.046619 1.402023 -8.418437 -2.459596 2.246979 -6.590737 -3.896541 -21.717513 2.458255 5.304225 -39.743144 -4.264719 11.543592 16.514609 -80.351338 -16.118783 8.279543 -20.667988 -13.330280 22.671169 3.745512 2.679529 39.383331 -6.564954 7.795857 -2.147092 25.348012 -6.306870 -5.194399 18.077993 -18.516183 
-0.305713 -0.827108 0.960418 -135.382028 -2.637068 102.498560 -0.958873 2.944734 -6.896372 -10.930308 -7.169462 25.418025 2.434325 13.827175 -19.855082 0.000000 -0.000000 0.000000 -6.271344 -8.615120 -38.059010 2.705591 -15.120722 71.159952 1.184019 -9.652754 -9.527730 0.000000 -0.000000 0.000000 0.776628 -4.627811 16.291114 7.169249 -3.252376 7.086359 2.088765 -1.702655 -5.796177 -0.497802 -7.761844 -2.279207 1.568530 -5.468448 -3.032436 -21.677166 3.069720 4.776533 -39.467419 -5.027541 12.057947 18.773417 -83.261190 -19.256913 10.100177 -20.901302 -14.066553 22.344347 2.413391 2.284270 37.372602 -7.546291 7.686042 -0.397314 23.521423 -7.014964 -4.382444 18.223754 -17.209710 
-0.343218 -0.779483 0.985638 -135.138642 -2.679659 102.978767 -0.477510 3.579530 -1.472669 -8.354264 -8.382351 19.684349 -1.644273 10.810787 -9.709161 0.000000 -0.000000 0.000000 -6.194250 -7.461055 -41.276144 4.425581 -18.146813 58.174956 2.143785 -8.866012 -8.309423 0.000000 -0.000000 0.000000 3.085451 -7.596959 13.693974 7.627416 -3.405782 6.299929 2.433423 -1.814063 -5.198929 -2.377045 -7.070620 -0.771997 1.176935 -4.246768 -3.016150 -21.926330 3.455464 4.860282 -39.601539 -4.375582 13.249971 22.358980 -84.816555 -23.091880 10.086601 -21.151793 -14.734423 21.777373 1.249928 2.406237 35.783480 -8.894824 7.393714 1.063320 22.926210 -8.036639 -2.428222 18.464408 -16.188406 
-0.399758 -0.702587 1.013995 -135.371548 -4.280646 103.309737 -0.676430 3.689202 3.260041 -5.449966 -7.282823 15.621828 -8.380584 8.305047 7.426847 0.000000 -0.000000 0.000000 -5.695416 -5.746047 -40.180649 6.420947 -19.002378 33.985755 -0.244398 -10.017468 -7.155829 0.000000 -0.000000 0.000000 4.573266 -9.446738 9.092403 7.848596 -4.670951 7.250191 2.981630 -1.905608 -6.280000 -4.545738 -6.982777 2.996061 1.776085 -3.534703 -3.504745 -22.483688 4.623500 6.531856 -40.670428 -3.399913 14.719743 11.958893 -86.004372 -13.400356 10.652787 -22.334980 -15.031307 21.126219 -0.461889 4.379060 35.641163 -9.581075 7.408232 1.746470 23.125577 -9.256740 -1.419715 19.424165 -14.290721 
-0.435517 -0.647485 1.020740 -136.780375 -6.193727 102.833445 -1.871354 2.734634 5.013299 -4.467939 -8.430266 17.367707 -10.300932 7.487237 12.988142 0.000000 -0.000000 0.000000 -4.440305 -5.884308 -38.351475 5.281247 -20.060557 24.280178 -0.192428 -12.212395 -5.896129 0.000000 -0.000000 0.000000 3.159204 -9.251971 5.858299 7.786675 -5.138708 8.519258 3.288066 -1.852470 -6.342864 -5.990049 -7.710355 6.076868 3.412075 -3.115400 -3.748696 -22.495924 5.664464 7.637596 -41.371196 -2.795900 14.921574 -10.594104 -85.484242 9.607250 7.934085 -22.445578 -14.181648 21.057417 -1.378559 6.008474 36.905241 -8.955930 6.591643 1.778276 23.295932 -10.281699 -0.393623 19.935493 -13.051204 
